<svg width="151" height="57" viewBox="0 0 151 57" fill="none" xmlns="http://www.w3.org/2000/svg">
<path d="M58.4556 26.2128C56.8596 26.2128 55.5827 26.0177 54.6251 25.6276C53.6852 25.2374 53.0025 24.5902 52.5769 23.6857C52.1513 22.7813 51.9385 21.5577 51.9385 20.0149L51.9651 7.48598H56.434L56.4074 20.1479C56.4074 20.804 56.5758 21.3094 56.9128 21.6641C57.2674 22.001 57.7729 22.1695 58.429 22.1695H60.4506V26.2128H58.4556ZM49.8104 14.8277V11.3165H60.4506V14.8277H49.8104ZM63.0454 26V11.3165H66.8759V17.7006H66.8227C66.8227 15.6435 67.2483 14.0297 68.0996 12.8593C68.9685 11.6889 70.2099 11.1037 71.8236 11.1037H72.4089V15.2534H71.2916C70.2099 15.2534 69.3675 15.546 68.7646 16.1312C68.1794 16.7164 67.8868 17.5587 67.8868 18.6582V26H63.0454ZM75.0111 26V11.3165H79.8525V26H75.0111ZM73.1491 14.8277V11.3165H79.8525V14.8277H73.1491ZM77.0062 10.146C76.1195 10.146 75.4634 9.92437 75.0377 9.48103C74.6299 9.01995 74.4259 8.43474 74.4259 7.72539C74.4259 7.01604 74.6299 6.43969 75.0377 5.99635C75.4634 5.53527 76.1106 5.30473 76.9796 5.30473C77.8663 5.30473 78.5136 5.53527 78.9214 5.99635C79.3293 6.43969 79.5333 7.01604 79.5333 7.72539C79.5333 8.43474 79.3293 9.01995 78.9214 9.48103C78.5136 9.92437 77.8751 10.146 77.0062 10.146ZM92.8813 26.4788C91.6755 26.4788 90.6203 26.2305 89.7159 25.734C88.8292 25.2374 88.1287 24.5104 87.6144 23.5527C87.1179 22.5951 86.8519 21.4247 86.8164 20.0415H87.242V26H83.4115V6.58156H88.2528V16.5834L87.1888 17.6474C87.242 16.211 87.5169 14.9874 88.0134 13.9765C88.51 12.9657 89.1927 12.2032 90.0617 11.6889C90.9484 11.1569 91.9681 10.8909 93.1208 10.8909C94.1138 10.8909 95.0094 11.0771 95.8074 11.4495C96.6054 11.8041 97.2793 12.3184 97.8291 12.9923C98.3965 13.6485 98.831 14.4287 99.1325 15.3332C99.434 16.2376 99.5847 17.2307 99.5847 18.3124V18.9508C99.5847 20.0326 99.434 21.0346 99.1325 21.9567C98.831 22.8611 98.3877 23.6591 97.8025 24.3508C97.2172 25.0246 96.5079 25.5478 95.6744 25.9202C94.8587 26.2926 93.9276 26.4788 92.8813 26.4788ZM91.4981 22.4887C92.1365 22.4887 92.6951 22.3291 93.174 22.0099C93.6705 21.673 94.0518 21.2119 94.3178 20.6267C94.6015 20.0415 94.7434 19.3765 94.7434 18.6316C94.7434 17.8691 94.6015 17.2129 94.3178 16.6632C94.0518 16.0957 93.6794 15.6612 93.2006 15.3598C92.7217 15.0406 92.1543 14.8809 91.4981 14.8809C90.9129 14.8809 90.3632 15.014 89.8489 15.28C89.3523 15.546 88.9445 15.9361 88.6253 16.4504C88.306 16.9647 88.1464 17.5853 88.1464 18.3124V19.2168C88.1464 19.9085 88.3149 20.5025 88.6519 20.9991C88.9888 21.4779 89.4144 21.8503 89.9287 22.1163C90.443 22.3646 90.9661 22.4887 91.4981 22.4887ZM109.56 26.532C108.266 26.532 107.113 26.3369 106.102 25.9468C105.091 25.5567 104.231 25.0158 103.522 24.3242C102.83 23.6325 102.298 22.8345 101.926 21.9301C101.571 21.0257 101.394 20.0592 101.394 19.0306V18.3922C101.394 17.3282 101.58 16.3351 101.952 15.413C102.343 14.4908 102.892 13.6839 103.602 12.9923C104.311 12.3007 105.171 11.7598 106.182 11.3697C107.193 10.9795 108.319 10.7845 109.56 10.7845C110.819 10.7845 111.945 10.9795 112.938 11.3697C113.949 11.7598 114.809 12.3007 115.519 12.9923C116.228 13.6839 116.769 14.4908 117.141 15.413C117.531 16.3351 117.727 17.3282 117.727 18.3922V19.0306C117.727 20.0592 117.54 21.0257 117.168 21.9301C116.813 22.8345 116.281 23.6325 115.572 24.3242C114.88 25.0158 114.029 25.5567 113.018 25.9468C112.007 26.3369 110.855 26.532 109.56 26.532ZM109.56 22.4887C110.305 22.4887 110.917 22.3291 111.396 22.0099C111.892 21.6907 112.265 21.2474 112.513 20.6799C112.761 20.0947 112.885 19.4385 112.885 18.7114C112.885 17.9489 112.752 17.2839 112.486 16.7164C112.238 16.1312 111.866 15.6701 111.369 15.3332C110.872 14.9962 110.269 14.8277 109.56 14.8277C108.851 14.8277 108.248 14.9962 107.751 15.3332C107.255 15.6701 106.873 16.1312 106.607 16.7164C106.359 17.2839 106.235 17.9489 106.235 18.7114C106.235 19.4385 106.359 20.0947 106.607 20.6799C106.856 21.2474 107.228 21.6907 107.725 22.0099C108.221 22.3291 108.833 22.4887 109.56 22.4887Z" fill="currentColor"/>
<path d="M58.2428 49.263C57.0192 49.263 55.9551 49.0502 55.0507 48.6246C54.164 48.199 53.4281 47.6315 52.8429 46.9221C52.2577 46.1951 51.8143 45.397 51.5128 44.5281C51.2291 43.6591 51.0872 42.7902 51.0872 41.9212V41.4424C51.0872 40.538 51.2291 39.6513 51.5128 38.7824C51.8143 37.9134 52.2577 37.1331 52.8429 36.4415C53.4458 35.7322 54.1906 35.1647 55.0773 34.7391C55.964 34.3135 57.0014 34.1006 58.1896 34.1006C59.3778 34.1006 60.4418 34.3223 61.3817 34.7657C62.3393 35.209 63.1018 35.8386 63.6693 36.6543C64.2545 37.4523 64.5826 38.4011 64.6535 39.5006H62.2063C62.0821 38.6139 61.6743 37.8779 60.9827 37.2927C60.291 36.6898 59.36 36.3883 58.1896 36.3883C57.1788 36.3883 56.3364 36.6188 55.6625 37.0799C54.9887 37.541 54.4832 38.1705 54.1463 38.9686C53.8094 39.7666 53.6409 40.671 53.6409 41.6818C53.6409 42.6572 53.8094 43.5527 54.1463 44.3685C54.4832 45.1665 54.9887 45.8049 55.6625 46.2837C56.3542 46.7448 57.2142 46.9753 58.2428 46.9753C59.0408 46.9753 59.7324 46.8335 60.3176 46.5497C60.9029 46.266 61.3728 45.8847 61.7275 45.4059C62.0821 44.9271 62.295 44.3862 62.3659 43.7833H64.8131C64.7599 44.9005 64.4319 45.867 63.8289 46.6827C63.2437 47.4985 62.4634 48.1369 61.4881 48.598C60.5304 49.0413 59.4487 49.263 58.2428 49.263ZM68.2831 48.7842V34.5795H70.3047V40.4316H70.1983C70.1983 38.3567 70.6505 36.8405 71.5549 35.8829C72.4771 34.9075 73.8515 34.4199 75.678 34.4199H76.1568V36.7075H75.2524C73.8337 36.7075 72.7431 37.0888 71.9806 37.8513C71.218 38.5961 70.8367 39.6779 70.8367 41.0966V48.7842H68.2831ZM79.8851 48.7842V34.5795H82.4387V48.7842H79.8851ZM77.7038 36.6011V34.5795H82.4387V36.6011H77.7038ZM80.6033 32.2918C80.0358 32.2918 79.6102 32.1411 79.3265 31.8396C79.0605 31.5381 78.9275 31.1568 78.9275 30.6958C78.9275 30.2347 79.0605 29.8534 79.3265 29.5519C79.6102 29.2505 80.0358 29.0997 80.6033 29.0997C81.1708 29.0997 81.5875 29.2505 81.8535 29.5519C82.1373 29.8534 82.2791 30.2347 82.2791 30.6958C82.2791 31.1568 82.1373 31.5381 81.8535 31.8396C81.5875 32.1411 81.1708 32.2918 80.6033 32.2918ZM95.9683 48.7842V44.5281H95.5427V39.607C95.5427 38.6316 95.2855 37.8957 94.7712 37.3991C94.2747 36.9026 93.5387 36.6543 92.5634 36.6543C92.0136 36.6543 91.4462 36.6632 90.8609 36.6809C90.2757 36.6986 89.7171 36.7164 89.1851 36.7341C88.6531 36.7518 88.192 36.7784 87.8019 36.8139V34.5795C88.192 34.544 88.5999 34.5174 89.0255 34.4997C89.4689 34.4642 89.9211 34.4465 90.3821 34.4465C90.8432 34.4287 91.2866 34.4199 91.7122 34.4199C93.1663 34.4199 94.3545 34.5972 95.2766 34.9519C96.1988 35.2888 96.8816 35.8474 97.3249 36.6277C97.7682 37.408 97.9899 38.4631 97.9899 39.7932V48.7842H95.9683ZM91.3132 49.1566C90.2491 49.1566 89.327 48.9793 88.5467 48.6246C87.7841 48.2522 87.1901 47.7202 86.7645 47.0285C86.3566 46.3369 86.1526 45.5034 86.1526 44.5281C86.1526 43.5173 86.3743 42.6749 86.8177 42.001C87.2787 41.3271 87.9438 40.8217 88.8127 40.4848C89.6817 40.1301 90.7279 39.9528 91.9516 39.9528H95.8087V41.868H91.8452C90.8166 41.868 90.0275 42.1163 89.4777 42.6128C88.928 43.1094 88.6531 43.7478 88.6531 44.5281C88.6531 45.3084 88.928 45.9379 89.4777 46.4167C90.0275 46.8955 90.8166 47.1349 91.8452 47.1349C92.4481 47.1349 93.0245 47.0285 93.5742 46.8157C94.124 46.5852 94.5762 46.2128 94.9308 45.6985C95.3033 45.1665 95.5072 44.4394 95.5427 43.5173L96.2343 44.5281C96.1456 45.5389 95.8973 46.3901 95.4895 47.0817C95.0993 47.7556 94.5496 48.2699 93.8402 48.6246C93.1486 48.9793 92.3062 49.1566 91.3132 49.1566ZM108.21 48.9438C107.146 48.9438 106.224 48.793 105.443 48.4916C104.681 48.1901 104.087 47.6758 103.661 46.9487C103.253 46.2039 103.049 45.202 103.049 43.9429V30.2702H105.496V44.2621C105.496 45.0246 105.7 45.6187 106.108 46.0443C106.534 46.4522 107.128 46.6561 107.891 46.6561H110.391V48.9438H108.21ZM100.602 36.4947V34.5795H110.391V36.4947H100.602ZM114.694 48.7842V34.5795H117.248V48.7842H114.694ZM112.513 36.6011V34.5795H117.248V36.6011H112.513ZM115.413 32.2918C114.845 32.2918 114.42 32.1411 114.136 31.8396C113.87 31.5381 113.737 31.1568 113.737 30.6958C113.737 30.2347 113.87 29.8534 114.136 29.5519C114.42 29.2505 114.845 29.0997 115.413 29.0997C115.98 29.0997 116.397 29.2505 116.663 29.5519C116.947 29.8534 117.089 30.2347 117.089 30.6958C117.089 31.1568 116.947 31.5381 116.663 31.8396C116.397 32.1411 115.98 32.2918 115.413 32.2918ZM125.218 48.7842L120.377 34.5795H123.037L127.772 48.7842H125.218ZM125.857 48.7842V46.7625H128.942V48.7842H125.857ZM127.08 48.7842L131.203 34.5795H133.704L129.501 48.7842H127.08ZM145.533 48.7842V44.5281H145.107V39.607C145.107 38.6316 144.85 37.8957 144.336 37.3991C143.839 36.9026 143.103 36.6543 142.128 36.6543C141.578 36.6543 141.011 36.6632 140.425 36.6809C139.84 36.6986 139.282 36.7164 138.75 36.7341C138.218 36.7518 137.756 36.7784 137.366 36.8139V34.5795C137.756 34.544 138.164 34.5174 138.59 34.4997C139.033 34.4642 139.485 34.4465 139.947 34.4465C140.408 34.4287 140.851 34.4199 141.277 34.4199C142.731 34.4199 143.919 34.5972 144.841 34.9519C145.763 35.2888 146.446 35.8474 146.889 36.6277C147.333 37.408 147.554 38.4631 147.554 39.7932V48.7842H145.533ZM140.878 49.1566C139.814 49.1566 138.891 48.9793 138.111 48.6246C137.349 48.2522 136.754 47.7202 136.329 47.0285C135.921 46.3369 135.717 45.5034 135.717 44.5281C135.717 43.5173 135.939 42.6749 136.382 42.001C136.843 41.3271 137.508 40.8217 138.377 40.4848C139.246 40.1301 140.292 39.9528 141.516 39.9528H145.373V41.868H141.41C140.381 41.868 139.592 42.1163 139.042 42.6128C138.492 43.1094 138.217 43.7478 138.217 44.5281C138.217 45.3084 138.492 45.9379 139.042 46.4167C139.592 46.8955 140.381 47.1349 141.41 47.1349C142.013 47.1349 142.589 47.0285 143.139 46.8157C143.688 46.5852 144.141 46.2128 144.495 45.6985C144.868 45.1665 145.072 44.4394 145.107 43.5173L145.799 44.5281C145.71 45.5389 145.462 46.3901 145.054 47.0817C144.664 47.7556 144.114 48.2699 143.405 48.6246C142.713 48.9793 141.871 49.1566 140.878 49.1566Z" fill="currentColor"/>
<rect x="4.47451" y="3.97755" width="36.972" height="48.1397" rx="5.76" stroke="currentColor" stroke-width="2.48"/>
<mask id="path-4-inside-1_30_667" fill="white">
<path d="M29.8512 27.731C31.3429 26.3514 32.3861 24.5558 32.8459 22.5767C33.3056 20.5976 33.1607 18.526 32.4299 16.6301C31.6991 14.7343 30.416 13.1014 28.7468 11.943C27.0775 10.7845 25.099 10.1538 23.0673 10.1324C21.0356 10.111 19.0442 10.7 17.351 11.8231C15.6577 12.9462 14.3406 14.5516 13.57 16.4317C12.7995 18.3117 12.611 20.3798 13.029 22.3682C13.447 24.3566 14.4522 26.1737 15.9145 27.5844L17.5738 25.8643C16.4559 24.7859 15.6874 23.3967 15.3678 21.8765C15.0482 20.3564 15.1923 18.7754 15.7814 17.338C16.3705 15.9007 17.3775 14.6733 18.672 13.8147C19.9665 12.9561 21.4889 12.5058 23.0421 12.5222C24.5954 12.5385 26.108 13.0207 27.3841 13.9064C28.6603 14.792 29.6412 16.0404 30.1999 17.4897C30.7586 18.9391 30.8694 20.5229 30.5179 22.0359C30.1665 23.549 29.3689 24.9217 28.2285 25.9764L29.8512 27.731Z"/>
</mask>
<path d="M29.8512 27.731C31.3429 26.3514 32.3861 24.5558 32.8459 22.5767C33.3056 20.5976 33.1607 18.526 32.4299 16.6301C31.6991 14.7343 30.416 13.1014 28.7468 11.943C27.0775 10.7845 25.099 10.1538 23.0673 10.1324C21.0356 10.111 19.0442 10.7 17.351 11.8231C15.6577 12.9462 14.3406 14.5516 13.57 16.4317C12.7995 18.3117 12.611 20.3798 13.029 22.3682C13.447 24.3566 14.4522 26.1737 15.9145 27.5844L17.5738 25.8643C16.4559 24.7859 15.6874 23.3967 15.3678 21.8765C15.0482 20.3564 15.1923 18.7754 15.7814 17.338C16.3705 15.9007 17.3775 14.6733 18.672 13.8147C19.9665 12.9561 21.4889 12.5058 23.0421 12.5222C24.5954 12.5385 26.108 13.0207 27.3841 13.9064C28.6603 14.792 29.6412 16.0404 30.1999 17.4897C30.7586 18.9391 30.8694 20.5229 30.5179 22.0359C30.1665 23.549 29.3689 24.9217 28.2285 25.9764L29.8512 27.731Z" stroke="currentColor" stroke-width="4.96775" mask="url(#path-4-inside-1_30_667)"/>
<path d="M23.2242 11.5794V4.26294" stroke="currentColor" stroke-width="2.48"/>
<path d="M27.3163 11.5794L33.3547 4.31413M30.3571 14.7047L41.4518 9.33927M31.7212 20.0702L41.4518 18.7971" stroke="currentColor" stroke-width="2.48"/>
<path d="M18.7239 11.5794L12.6856 4.31413M15.6831 14.7047L4.58843 9.33927M14.319 20.0702L4.58843 18.7971" stroke="currentColor" stroke-width="2.48"/>
<path d="M22.9605 20.2697L14.3175 31.5056H18.639L12.5889 39.2843H33.3321L27.282 31.5056H31.6035L22.9605 20.2697Z" stroke="currentColor" stroke-width="2.48388" stroke-linecap="round" stroke-linejoin="round"/>
<path d="M22.9605 39.2843V51.3845" stroke="currentColor" stroke-width="2.48388" stroke-linecap="round" stroke-linejoin="round"/>
</svg>
